<svg width="26" height="24" viewBox="0 0 26 24" fill="none" xmlns="http://www.w3.org/2000/svg">
<path d="M12.1221 0.609785C12.5011 -0.0851564 13.4989 -0.0851551 13.8779 0.609786L17.1341 6.58035C17.2779 6.84408 17.5327 7.02918 17.8279 7.08447L24.5125 8.33625C25.2905 8.48196 25.5989 9.43097 25.0551 10.0062L20.383 14.948C20.1766 15.1663 20.0793 15.4658 20.1179 15.7637L20.993 22.5079C21.0949 23.2928 20.2876 23.8794 19.5725 23.5399L13.4288 20.6236C13.1575 20.4947 12.8425 20.4947 12.5712 20.6236L6.42747 23.5399C5.71238 23.8794 4.9051 23.2928 5.00696 22.5079L5.88208 15.7637C5.92073 15.4658 5.82342 15.1663 5.61705 14.948L0.944911 10.0062C0.4011 9.43097 0.709455 8.48196 1.4875 8.33625L8.17205 7.08447C8.46732 7.02918 8.72208 6.84408 8.86591 6.58035L12.1221 0.609785Z" fill="#FDCA46"/>
</svg>
